<svg width="43" height="36" viewBox="0 0 43 36" fill="none" xmlns="http://www.w3.org/2000/svg">
<g clip-path="url(#clip0_110_700)">
<path d="M11.5736 9.8893L10.8874 9.25036C12.5891 7.26679 13.0557 3.46175 12.7812 1.22069C11.8114 1.60215 10.7593 2.49858 9.97251 3.62387L9.23145 3.06122C10.2836 1.55447 11.7474 0.438708 13.0557 0.152615L13.504 0.057251L13.5955 0.524536C13.998 2.50811 13.8151 7.28586 11.5736 9.89884V9.8893Z" fill="#0097D8"/>
<path d="M8.2981 8.81167L7.38321 8.78306C7.44725 6.7232 6.60555 4.3677 5.66321 2.98492C4.8581 4.32002 4.5013 6.37989 4.79406 8.24902L3.88832 8.40161C3.51321 5.99843 4.08959 3.37591 5.3064 1.88823L5.64491 1.46863L5.99257 1.87869C7.17278 3.26148 8.37129 6.17008 8.2981 8.81167Z" fill="#0097D8"/>
<path d="M5.51681 19.2636C0.393405 18.6628 0 11.7965 0 9.70806V9.05005L0.594681 9.25031C1.2717 9.47919 4.70255 10.7475 5.46192 13.1984L4.59277 13.494C4.15362 12.0636 2.29638 10.9669 0.924043 10.3947C1.01553 12.7788 1.6834 17.8617 5.6083 18.3195L5.50766 19.2636H5.51681Z" fill="#0097D8"/>
<path d="M8.16093 19.7309C7.0539 18.7772 6.54156 17.547 6.66965 16.1642C6.88007 14.0185 8.61837 11.9491 10.1462 11.1004L10.4848 10.9097L10.7226 11.2339C11.8662 12.7883 12.4701 15.4872 11.0886 17.7473L10.3201 17.2323C11.4271 15.4299 10.9239 13.351 10.2286 12.1685C8.99348 13.0077 7.73093 14.667 7.57539 16.2691C7.47476 17.3372 7.85901 18.2527 8.73731 19.0061L8.15178 19.7404L8.16093 19.7309Z" fill="#0097D8"/>
<path d="M13.7967 29.0862L13.0647 28.514C13.7143 27.6175 13.9247 26.6734 13.6777 25.7103C13.2843 24.1558 11.8113 22.8684 10.7226 22.239C10.3567 23.5932 9.99984 25.9773 11.5003 27.3982L10.8873 28.1039C8.76474 26.1013 9.56984 22.754 10.009 21.4093L10.1737 20.923L10.6311 21.1232C11.912 21.6954 14.0254 23.3357 14.5652 25.4623C14.8854 26.7211 14.6292 27.9418 13.7967 29.0862Z" fill="#0097D8"/>
<path d="M7.39246 28.533C6.27629 28.533 5.25161 28.1706 4.31842 27.4554C2.15927 25.796 1.0248 22.4678 0.915014 20.6463L0.878418 20.1123L1.39076 20.1409C4.45565 20.3126 6.77948 21.3139 8.12438 23.04L7.41076 23.6408C6.31289 22.2294 4.40991 21.3711 1.87565 21.1327C2.14097 22.8016 3.13821 25.3764 4.84906 26.6924C5.93778 27.5316 7.19118 27.7796 8.57267 27.4267L8.7831 28.3518C8.29821 28.4757 7.83161 28.533 7.37416 28.533H7.39246Z" fill="#0097D8"/>
<path d="M14.3821 36C10.4847 36 7.493 33.139 6.19385 31.1078L5.84619 30.5642L6.44087 30.383C9.03002 29.5915 17.7856 29.21 19.1853 34.1117L19.286 34.4741L18.9658 34.6648C17.3373 35.609 15.7911 36 14.3639 36H14.3821ZM7.35577 31.1364C8.59087 32.748 12.589 37.0299 18.1881 34.0259C16.7975 30.6786 10.2834 30.5547 7.35577 31.1364Z" fill="#0097D8"/>
<path d="M31.4266 9.88927C29.1851 7.27629 29.0022 2.49854 29.4047 0.514967L29.5053 0L29.9902 0.162119C31.4449 0.658013 32.8264 1.71656 33.7688 3.07073L33.0277 3.63338C32.3232 2.61298 31.2985 1.7547 30.219 1.26834C29.9536 3.51894 30.4202 7.28583 32.1128 9.25987L31.4266 9.89881V9.88927Z" fill="#0097D8"/>
<path d="M34.702 8.81167C34.6197 6.17008 35.8273 3.26148 37.0076 1.87869L37.3552 1.46863L37.6937 1.88823C38.9105 3.37591 39.4778 5.99843 39.1118 8.40161L38.2061 8.24902C38.4988 6.37989 38.142 4.32002 37.3278 2.98492C36.3854 4.37724 35.5529 6.73273 35.6078 8.78306L34.6929 8.81167H34.702Z" fill="#0097D8"/>
<path d="M37.483 19.2636L37.3823 18.3195C41.3072 17.8617 41.9751 12.7788 42.0666 10.3947C40.7034 10.9669 38.8462 12.0636 38.3979 13.494L37.5287 13.1984C38.2881 10.7571 41.7189 9.48872 42.3959 9.25031L42.9906 9.05005V9.70806C42.9906 11.7965 42.5972 18.6628 37.4738 19.2636H37.483Z" fill="#0097D8"/>
<path d="M34.8392 19.7309L34.2537 18.9966C35.1229 18.2527 35.5163 17.3277 35.4156 16.2596C35.2601 14.6575 34.0067 13.0077 32.7624 12.159C32.0671 13.3415 31.5639 15.4204 32.6709 17.2228L31.9024 17.7378C30.5209 15.4776 31.1156 12.7788 32.2684 11.2244L32.5063 10.9001L32.8448 11.0909C34.3818 11.9396 36.1201 14.009 36.3214 16.1547C36.4586 17.5375 35.9371 18.7677 34.8301 19.7213L34.8392 19.7309Z" fill="#0097D8"/>
<path d="M29.2032 29.0862C28.3706 27.9418 28.1145 26.7211 28.4347 25.4623C28.9745 23.3262 31.0879 21.6954 32.3687 21.1232L32.8262 20.923L32.9909 21.4093C33.4392 22.754 34.2443 26.1013 32.1126 28.1039L31.4996 27.3982C33 25.9868 32.6523 23.6027 32.2772 22.239C31.1885 22.8684 29.7155 24.1558 29.3221 25.7103C29.0751 26.6734 29.2855 27.6175 29.9351 28.514L29.2032 29.0862Z" fill="#0097D8"/>
<path d="M35.6077 28.533C35.1502 28.533 34.6836 28.4757 34.1987 28.3518L34.4092 27.4267C35.7906 27.7701 37.044 27.5221 38.1328 26.6924C39.8345 25.3764 40.8409 22.8016 41.1062 21.1327C38.5811 21.3711 36.6689 22.2294 35.5711 23.6408L34.8575 23.04C36.2023 21.3139 38.5262 20.3126 41.5911 20.1409L42.1034 20.1123L42.0668 20.6463C41.957 22.4773 40.8317 25.796 38.6634 27.4554C37.7302 28.1706 36.6964 28.533 35.5894 28.533H35.6077Z" fill="#0097D8"/>
<path d="M28.6179 36C27.1907 36 25.6445 35.6185 24.016 34.6648L23.6958 34.4741L23.7964 34.1117C25.2054 29.21 33.9518 29.5915 36.5409 30.383L37.1356 30.5642L36.7879 31.1078C35.4979 33.139 32.4971 36 28.5996 36H28.6179ZM24.8028 34.0259C30.402 37.0299 34.4001 32.748 35.6352 31.1364C32.7075 30.5451 26.1935 30.6691 24.8028 34.0259Z" fill="#0097D8"/>
</g>
<defs>
<clipPath id="clip0_110_700">
<rect width="43" height="36" fill="white"/>
</clipPath>
</defs>
</svg>
