<svg width="15" height="15" viewBox="0 0 15 15" fill="none" xmlns="http://www.w3.org/2000/svg">
<path d="M7.72689 0C9.70198 0 9.94985 0.0086365 10.7256 0.0439395C11.4998 0.0793941 12.0283 0.20197 12.4907 0.381818C12.969 0.567576 13.3747 0.816061 13.779 1.22045C14.1835 1.6247 14.432 2.03045 14.6183 2.50864C14.7986 2.97121 14.9214 3.49985 14.9562 4.27379C14.9909 5.04955 15 5.29758 15 7.27273C15 9.24788 14.9912 9.495 14.9561 10.2708C14.9205 11.045 14.7979 11.5735 14.6182 12.0359C14.4323 12.5142 14.1838 12.92 13.7794 13.3242C13.3754 13.7288 12.9696 13.9779 12.4916 14.1636C12.0289 14.3435 11.5003 14.4661 10.7262 14.5015C9.95046 14.5368 9.70274 14.5455 7.7278 14.5455C5.75255 14.5455 5.50544 14.5368 4.7297 14.5015C3.95548 14.4661 3.42641 14.3435 2.9637 14.1636C2.48553 13.9779 2.08039 13.7288 1.67631 13.3242C1.27178 12.92 1.0233 12.5142 0.836945 12.0361C0.658162 11.5735 0.535438 11.0448 0.499075 10.2709C0.464228 9.49515 0.455137 9.24788 0.455137 7.27273C0.455137 5.29758 0.464228 5.0497 0.499075 4.27394C0.535438 3.4997 0.658162 2.97121 0.836945 2.50879C1.0233 2.03045 1.27178 1.6247 1.67631 1.22045C2.08084 0.815909 2.48538 0.567424 2.96415 0.381818C3.42777 0.20197 3.95655 0.0793941 4.73077 0.0439395C5.5065 0.0086365 5.75346 0 7.72916 0H7.72689ZM8.37929 1.31061C8.18566 1.3103 7.96961 1.31061 7.72689 1.31061C5.78513 1.31061 5.55498 1.31758 4.78819 1.35242C4.07912 1.38485 3.69428 1.50333 3.43793 1.60288C3.09854 1.7347 2.85658 1.89227 2.60219 2.14682C2.34766 2.40136 2.19009 2.64379 2.05797 2.98318C1.95843 3.23924 1.83979 3.62409 1.80752 4.33318C1.77267 5.09985 1.7651 5.33015 1.7651 7.27106C1.7651 9.21197 1.77267 9.44227 1.80752 10.2089C1.83994 10.918 1.95843 11.3029 2.05797 11.5589C2.18978 11.8983 2.34766 12.14 2.60219 12.3944C2.85673 12.6489 3.09839 12.8065 3.43793 12.9383C3.69398 13.0383 4.07912 13.1565 4.78819 13.1889C5.55483 13.2238 5.78513 13.2314 7.72689 13.2314C9.6688 13.2314 9.89894 13.2238 10.6656 13.1889C11.3747 13.1562 11.7595 13.0377 12.016 12.9382C12.3554 12.8064 12.5978 12.6488 12.8523 12.3942C13.1069 12.1397 13.2644 11.8979 13.3966 11.5583C13.4961 11.3023 13.6147 10.9174 13.647 10.2083C13.6819 9.44167 13.6888 9.21136 13.6888 7.26924C13.6888 5.32712 13.6819 5.09803 13.647 4.33136C13.6146 3.62227 13.4961 3.23742 13.3966 2.98106C13.2647 2.64167 13.1069 2.39924 12.8523 2.1447C12.5978 1.89015 12.3554 1.73258 12.016 1.60045C11.7596 1.50045 11.3747 1.38227 10.6656 1.3497C9.9947 1.31939 9.7347 1.3103 8.37929 1.30879V1.31061ZM3.84488 2.51818C4.32669 2.51818 4.71758 2.90864 4.71758 3.39061C4.71758 3.87242 4.32669 4.26333 3.84488 4.26333C3.36308 4.26333 2.97218 3.87242 2.97218 3.39061C2.97218 2.90879 3.36308 2.51818 3.84488 2.51818ZM7.72689 3.53788C9.7894 3.53788 11.4616 5.21015 11.4616 7.27273C11.4616 9.3353 9.7894 11.0068 7.72689 11.0068C5.66437 11.0068 3.99276 9.3353 3.99276 7.27273C3.99276 5.21015 5.66437 3.53788 7.72689 3.53788ZM7.72689 4.84848C6.38814 4.84848 5.30272 5.93379 5.30272 7.27273C5.30272 8.61152 6.38814 9.69697 7.72689 9.69697C9.06579 9.69697 10.1511 8.61152 10.1511 7.27273C10.1511 5.93379 9.06579 4.84848 7.72689 4.84848Z" fill="#0097D8"/>
</svg>
