<svg width="266" height="62" viewBox="0 0 266 62" fill="none" xmlns="http://www.w3.org/2000/svg">
<g clip-path="url(#clip0_102_369)">
<path d="M264.233 1.03662H1.45508V60.8594H264.233V1.03662Z" fill="white"/>
<path fill-rule="evenodd" clip-rule="evenodd" d="M247.394 19.5954V13.271H250.2C250.824 13.271 251.24 13.3747 251.551 13.582C251.967 13.7894 252.175 14.3078 252.175 14.9299C252.175 15.3446 252.175 15.6556 251.967 15.863C251.863 16.0703 251.655 16.2777 251.344 16.485C251.655 16.6924 251.863 16.8998 251.967 17.0034C252.071 17.2108 252.071 17.5218 252.071 18.0402C252.071 18.4549 252.071 18.766 252.175 18.8697C252.175 19.077 252.279 19.1807 252.487 19.2844V19.4917H251.447C251.344 19.1807 251.24 18.8697 251.24 18.4549C251.24 17.8329 251.24 17.5218 251.136 17.4182C251.032 17.0034 250.72 16.8998 250.2 16.8998H248.121V19.5954H247.394ZM250.2 13.9967H248.225V16.174H250.304C251.032 16.174 251.344 15.863 251.447 15.2409V15.0335C251.344 14.3078 250.928 13.9967 250.2 13.9967Z" fill="#0097D8"/>
<path fill-rule="evenodd" clip-rule="evenodd" d="M110.184 21.565L103.739 23.7422C103.115 22.2907 102.388 21.3576 101.556 20.7356C100.724 20.1135 99.581 19.9061 98.1258 19.9061C95.1113 19.9061 93.6561 20.9429 93.6561 22.9128C93.6561 23.7422 93.9679 24.468 94.6955 24.9864C95.4232 25.4011 96.5666 25.8158 98.3337 26.1269C102.595 26.9563 105.506 27.8894 107.169 29.1335C109.768 30.9998 111.119 33.4881 111.119 36.7021C111.119 39.9162 109.872 42.6118 107.481 44.5817C104.986 46.5516 101.764 47.4847 97.606 47.4847C90.5377 47.4847 86.1719 44.478 84.4048 38.4646L91.4732 36.8058C92.3047 39.9162 94.5916 41.3677 98.1258 41.3677C101.66 41.3677 103.219 40.2272 103.219 37.8426C103.219 36.9095 102.803 36.1837 101.972 35.6653C101.14 35.1469 99.685 34.6285 97.5021 34.2138C93.3442 33.3844 90.3298 32.1402 88.5627 30.6887C86.7956 29.2372 85.964 27.06 85.964 24.157C85.964 21.0466 87.0035 18.662 89.1863 16.6921C91.3692 14.7222 94.1758 13.7891 97.71 13.7891C100.932 13.7891 103.531 14.4111 105.506 15.6553C107.689 16.8994 109.144 18.8693 110.184 21.565Z" fill="#0097D8"/>
<path fill-rule="evenodd" clip-rule="evenodd" d="M145.318 20.5282H129.726V27.2673H141.991V33.3844H129.726V40.4345H145.318V46.9663H121.93V14.4111H145.318V20.5282Z" fill="#0097D8"/>
<path fill-rule="evenodd" clip-rule="evenodd" d="M163.404 34.0065V46.8626H155.712V14.4111H170.057C173.903 14.4111 176.71 15.1369 178.477 16.5884C180.764 18.4546 181.907 20.9429 181.907 24.157C181.907 28.0968 180.036 30.8961 176.294 32.5549L182.323 46.8626H173.903L168.914 34.0065H163.404ZM163.404 20.2172V28.5115H168.082C170.057 28.5115 171.408 28.3041 172.136 27.7857C173.383 26.9563 174.007 25.8158 174.007 24.157C174.007 22.8091 173.487 21.7723 172.448 21.0466C171.928 20.7355 171.408 20.4245 170.889 20.3208C170.369 20.2172 169.329 20.2172 167.77 20.2172H163.404Z" fill="#0097D8"/>
<path fill-rule="evenodd" clip-rule="evenodd" d="M217.041 20.5282H201.449V27.2673H213.715V33.3844H201.449V40.4345H217.041V46.9663H193.653V14.4111H217.041V20.5282Z" fill="#0097D8"/>
<path fill-rule="evenodd" clip-rule="evenodd" d="M235.128 40.4345H248.121V46.9663H227.436V14.4111H235.128V40.4345Z" fill="#0097D8"/>
<path d="M266 0V62H0V0H266ZM263.297 2.69565H2.70262V59.408H263.297V2.69565Z" fill="#0097D8"/>
<path fill-rule="evenodd" clip-rule="evenodd" d="M245.626 16.3812C245.626 18.6621 247.497 20.5284 249.784 20.5284C252.071 20.5284 253.942 18.6621 253.942 16.3812C253.942 14.1003 252.071 12.2341 249.784 12.2341C247.497 12.2341 245.626 14.1003 245.626 16.3812ZM244.587 16.3812C244.587 13.4782 246.978 11.1973 249.784 11.1973C252.591 11.1973 254.982 13.5819 254.982 16.3812C254.982 19.1805 252.591 21.5652 249.784 21.5652C246.978 21.6688 244.587 19.2842 244.587 16.3812Z" fill="#0097D8"/>
</g>
<defs>
<clipPath id="clip0_102_369">
<rect width="266" height="62" fill="white"/>
</clipPath>
</defs>
</svg>
