<svg width="32" height="44" viewBox="0 0 32 44" fill="none" xmlns="http://www.w3.org/2000/svg">
<g clip-path="url(#clip0_110_681)">
<path d="M25.7137 28.6911L15.99 23.8354L6.26632 28.6911L8.12184 18.4112L0.273926 11.1277L11.1434 9.62471L16.0002 0.269775L20.8569 9.62471L31.7264 11.1277L23.8684 18.4112L25.7239 28.6911H25.7137ZM15.99 23.2958L25.0344 27.8143L23.3107 18.2474L30.6313 11.4649L20.5223 10.0679L16.0002 1.35846L11.478 10.0679L1.36898 11.4649L8.68964 18.2474L6.96594 27.8143L16.0103 23.2958H15.99Z" fill="#0097D8"/>
<path d="M25.8859 28.9126L16 23.9702L6.11407 28.9126L8 18.4497L0 11.0409L11.052 9.51872L16 0L20.948 9.51872L32 11.0409L24 18.4497L25.8859 28.9126ZM16 23.7005L16.0608 23.7294L25.5513 28.4695L23.7262 18.363L23.7769 18.3149L31.4525 11.2047L20.7757 9.73068L20.7452 9.67287L16 0.539523L11.2243 9.73068H11.1635L0.547529 11.2144L8.27376 18.3727V18.4305L6.44867 28.4695L16 23.7005ZM25.2167 28.0359L16 23.4307L6.78327 28.0359L8.54753 18.286L1.08492 11.3781L11.3866 9.95227L16 1.08868L20.6033 9.9619L30.9049 11.3878L23.4525 18.2956L25.2167 28.0455V28.0359ZM16 23.1609L16.0608 23.1898L24.8821 27.5927L23.1888 18.1993L23.2395 18.1511L30.3777 11.5419L20.4512 10.1739L20.4208 10.1161L16 1.6282L11.5589 10.1739H11.4981L1.64259 11.5419L8.82129 18.1896V18.2474L7.12801 27.5831L16.0101 23.1513L16 23.1609Z" fill="#0097D8"/>
<path d="M13.2116 27.2651H12.7046V33.0457H13.2116V27.2651Z" fill="#0097D8"/>
<path d="M13.3332 33.1613H12.5728V27.1399H13.3332V33.1613ZM12.8262 32.9205H13.0797V27.3808H12.8262V32.9205Z" fill="#0097D8"/>
<path d="M19.2955 27.2651H18.7886V33.0457H19.2955V27.2651Z" fill="#0097D8"/>
<path d="M19.4172 33.1613H18.6567V27.1399H19.4172V33.1613ZM18.9102 32.9205H19.1637V27.3808H18.9102V32.9205Z" fill="#0097D8"/>
<path d="M24.365 37.863H23.858V34.9727C23.858 34.0478 23.057 33.2866 22.0836 33.2866H18.0278V32.8049H22.0836C23.3409 32.8049 24.365 33.778 24.365 34.9727V37.863Z" fill="#0097D8"/>
<path d="M24.4867 37.9786H23.7263V34.9727C23.7263 34.1056 22.9861 33.4119 22.0837 33.4119H17.9062V32.6893H22.0837C23.412 32.6893 24.4969 33.7202 24.4969 34.9823V37.9882L24.4867 37.9786ZM23.9798 37.7377H24.2332V34.963C24.2332 33.8358 23.27 32.9206 22.0837 32.9206H18.1496V33.1614H22.0837C23.1281 33.1614 23.9899 33.9707 23.9899 34.9727V37.7474L23.9798 37.7377Z" fill="#0097D8"/>
<path d="M8.14174 37.863H7.63477V34.9727C7.63477 33.778 8.65885 32.8049 9.91613 32.8049H15.9998V33.2866H9.91613C8.94275 33.2866 8.14174 34.0478 8.14174 34.9727V37.863Z" fill="#0097D8"/>
<path d="M8.26339 37.9786H7.50293V34.9727C7.50293 33.7106 8.58785 32.6797 9.91611 32.6797H16.1214V33.4023H9.91611C9.00356 33.4023 8.27353 34.1056 8.27353 34.963V37.9689L8.26339 37.9786ZM7.75642 37.7377H8.0099V34.963C8.0099 33.9707 8.86161 33.1518 9.91611 33.1518H15.8781V32.9109H9.91611C8.7298 32.9109 7.76655 33.8262 7.76655 34.9534V37.7281L7.75642 37.7377Z" fill="#0097D8"/>
<path d="M27.4069 43.8844H4.59326V39.7898C4.59326 38.5951 5.61734 37.6221 6.87463 37.6221H17.014V38.1038H6.87463C5.90125 38.1038 5.10023 38.8649 5.10023 39.7898V43.4027H26.9V39.7898C26.9 38.8649 26.099 38.1038 25.1256 38.1038H19.0419V37.6221H25.1256C26.3829 37.6221 27.4069 38.5951 27.4069 39.7898V43.8844Z" fill="#0097D8"/>
<path d="M27.5286 44H4.46143V39.7802C4.46143 38.5181 5.54634 37.4872 6.87461 37.4872H17.1357V38.2098H6.87461C5.96206 38.2098 5.23202 38.9131 5.23202 39.7705V43.2581H26.7783V39.7705C26.7783 38.9034 26.0381 38.2098 25.1357 38.2098H18.9304V37.4872H25.1357C26.464 37.4872 27.5489 38.5181 27.5489 39.7802V44H27.5286ZM4.71491 43.7591H27.2751V39.7898C27.2751 38.6626 26.3119 37.7473 25.1256 37.7473H19.1636V37.9882H25.1256C26.1699 37.9882 27.0318 38.7975 27.0318 39.7994V43.5375H4.9684V39.7994C4.9684 38.8071 5.82011 37.9882 6.87461 37.9882H16.8924V37.7473H6.87461C5.6883 37.7473 4.72505 38.6626 4.72505 39.7898V43.7591H4.71491Z" fill="#0097D8"/>
</g>
<defs>
<clipPath id="clip0_110_681">
<rect width="32" height="44" fill="white"/>
</clipPath>
</defs>
</svg>
