<svg width="22" height="22" viewBox="0 0 22 22" fill="none" xmlns="http://www.w3.org/2000/svg">
<path d="M19.9377 5.46349C19.2803 5.74708 18.5648 5.95118 17.8279 6.03067C18.593 5.57614 19.166 4.85805 19.4393 4.01114C18.7213 4.43823 17.9348 4.73771 17.1146 4.8963C16.7719 4.52983 16.3573 4.23789 15.8967 4.03866C15.4361 3.83943 14.9395 3.73718 14.4377 3.73829C12.4074 3.73829 10.7746 5.38399 10.7746 7.40352C10.7746 7.68712 10.809 7.97071 10.8648 8.24356C7.82481 8.08458 5.11348 6.63224 3.31094 4.4086C2.9825 4.96959 2.81038 5.60835 2.8125 6.25841C2.8125 7.53028 3.45918 8.65177 4.44531 9.31134C3.86417 9.28845 3.29663 9.12872 2.78887 8.84513V8.89024C2.78887 10.6713 4.04785 12.1473 5.72578 12.4867C5.41073 12.5686 5.08664 12.6104 4.76113 12.6113C4.52266 12.6113 4.29707 12.5877 4.06934 12.5555C4.5334 14.0078 5.88477 15.0627 7.49395 15.0971C6.23496 16.0832 4.65801 16.6633 2.9457 16.6633C2.63848 16.6633 2.35488 16.6525 2.06055 16.6182C3.68477 17.6602 5.61191 18.2617 7.6873 18.2617C14.4248 18.2617 18.1115 12.6801 18.1115 7.83536C18.1115 7.67638 18.1115 7.51739 18.1008 7.35841C18.8141 6.83634 19.4393 6.18966 19.9377 5.46349Z" fill="#0097D8"/>
</svg>
