<svg width="20" height="15" viewBox="0 0 20 15" fill="none" xmlns="http://www.w3.org/2000/svg">
<g clip-path="url(#clip0_102_312)">
<path d="M19.5583 2.19336C19.4436 1.76942 19.2198 1.38293 18.9093 1.07237C18.5987 0.761806 18.2122 0.538017 17.7883 0.423281C16.2363 0 9.98986 0 9.98986 0C9.98986 0 3.74314 0.0128125 2.19111 0.436094C1.76716 0.550836 1.38067 0.774637 1.07013 1.08521C0.759581 1.39579 0.535813 1.78229 0.421109 2.20625C-0.0483444 4.96391 -0.230454 9.16594 0.433999 11.8133C0.548716 12.2372 0.772489 12.6237 1.08303 12.9343C1.39358 13.2448 1.78006 13.4686 2.204 13.5834C3.75603 14.0066 10.0026 14.0066 10.0026 14.0066C10.0026 14.0066 16.2491 14.0066 17.801 13.5834C18.225 13.4686 18.6115 13.2449 18.922 12.9343C19.2326 12.6237 19.4564 12.2372 19.5711 11.8133C20.0663 9.05172 20.2188 4.85234 19.5583 2.19344V2.19336Z" fill="#0097D8"/>
<path d="M8.00146 10.0048L13.1833 7.00336L8.00146 4.00195V10.0048Z" fill="#F9F6F3"/>
</g>
<defs>
<clipPath id="clip0_102_312">
<rect width="20" height="14.0625" fill="white"/>
</clipPath>
</defs>
</svg>
